G04 Layer: TopSolderMaskLayer*
G04 EasyEDA v6.5.51, 2025-11-13 11:14:40*
G04 bf1f3799a3224107ae82f300eded96c1,09fcd8053ca944d09a55be336b12f992,10*
G04 Gerber Generator version 0.2*
G04 Scale: 100 percent, Rotated: No, Reflected: No *
G04 Dimensions in millimeters *
G04 leading zeros omitted , absolute positions ,4 integer and 5 decimal *
%FSLAX45Y45*%
%MOMM*%

%AMMACRO1*4,1,8,-0.6961,-0.7559,-0.7258,-0.7259,-0.7258,0.7262,-0.6961,0.7559,0.6958,0.7559,0.7258,0.7262,0.7258,-0.7259,0.6958,-0.7559,-0.6961,-0.7559,0*%
%AMMACRO2*4,1,8,-0.6961,-0.7558,-0.7258,-0.7258,-0.7258,0.7261,-0.6961,0.7558,0.6958,0.7558,0.7258,0.7261,0.7258,-0.7258,0.6958,-0.7558,-0.6961,-0.7558,0*%
%AMMACRO3*4,1,8,-0.8085,-0.8382,-0.8382,-0.8082,-0.8382,0.8085,-0.8085,0.8382,0.8082,0.8382,0.8382,0.8085,0.8382,-0.8082,0.8082,-0.8382,-0.8085,-0.8382,0*%
%AMMACRO4*4,1,8,-0.7209,-0.5508,-0.7506,-0.5208,-0.7506,0.5211,-0.7209,0.5508,0.7206,0.5508,0.7506,0.5211,0.7506,-0.5208,0.7206,-0.5508,-0.7209,-0.5508,0*%
%AMMACRO5*4,1,8,-1.2711,-0.7008,-1.3009,-0.6708,-1.3009,0.6711,-1.2711,0.7008,1.2709,0.7008,1.3009,0.6711,1.3009,-0.6708,1.2709,-0.7008,-1.2711,-0.7008,0*%
%AMMACRO6*4,1,8,-0.6712,-0.9507,-0.7009,-0.9207,-0.7009,0.921,-0.6712,0.9507,0.6709,0.9507,0.7009,0.921,0.7009,-0.9207,0.6709,-0.9507,-0.6712,-0.9507,0*%
%AMMACRO7*4,1,8,-0.6712,-0.9507,-0.7009,-0.9208,-0.7009,0.921,-0.6712,0.9507,0.6709,0.9507,0.7009,0.921,0.7009,-0.9208,0.6709,-0.9507,-0.6712,-0.9507,0*%
%AMMACRO8*4,1,8,-0.7097,-0.6171,-0.7394,-0.5871,-0.7394,0.5874,-0.7097,0.6171,0.7094,0.6171,0.7394,0.5874,0.7394,-0.5871,0.7094,-0.6171,-0.7097,-0.6171,0*%
%ADD10C,2.7032*%
%ADD11MACRO1*%
%ADD12MACRO2*%
%ADD13C,1.6764*%
%ADD14MACRO3*%
%ADD15C,0.0166*%
%ADD16MACRO4*%
%ADD17MACRO5*%
%ADD18MACRO6*%
%ADD19MACRO7*%
%ADD20O,3.1496X1.6256*%
%ADD21MACRO8*%

%LPD*%
D10*
G01*
X304800Y-3365500D03*
D11*
G01*
X1003312Y-2605100D03*
D12*
G01*
X1003312Y-2805112D03*
G01*
X1282712Y-2792412D03*
D11*
G01*
X1282712Y-2592400D03*
D13*
G01*
X1930400Y-3314700D03*
G01*
X1676400Y-3314700D03*
G01*
X1422400Y-3314700D03*
G01*
X1168400Y-3314700D03*
G01*
X914400Y-3314700D03*
D14*
G01*
X660400Y-3314700D03*
D16*
G01*
X457200Y-2612783D03*
G01*
X457200Y-2822841D03*
D17*
G01*
X355307Y-203911D03*
G01*
X355307Y-403910D03*
G01*
X355307Y-603910D03*
G01*
X355307Y-803910D03*
G01*
X355307Y-1003909D03*
G01*
X355307Y-1203909D03*
G01*
X355307Y-1403908D03*
G01*
X355307Y-1603908D03*
D18*
G01*
X630186Y-1751914D03*
G01*
X830186Y-1751761D03*
G01*
X1030185Y-1751812D03*
G01*
X1230185Y-1751812D03*
G01*
X1430185Y-1751812D03*
D19*
G01*
X1630184Y-1751888D03*
D17*
G01*
X1905292Y-1603908D03*
G01*
X1905292Y-1403883D03*
G01*
X1905292Y-1203883D03*
G01*
X1905292Y-1003884D03*
G01*
X1905292Y-803884D03*
G01*
X1905292Y-603885D03*
G01*
X1905292Y-403885D03*
G01*
X1905292Y-203885D03*
D20*
G01*
X1790700Y-2768600D03*
G01*
X1790700Y-2514600D03*
D21*
G01*
X1879600Y-2132012D03*
G01*
X1879600Y-1931987D03*
G01*
X444500Y-2297112D03*
G01*
X444500Y-2097087D03*
G01*
X736600Y-2617787D03*
G01*
X736600Y-2817812D03*
M02*
