G04 Layer: TopSilkscreenLayer*
G04 EasyEDA v6.5.51, 2025-11-13 11:14:40*
G04 bf1f3799a3224107ae82f300eded96c1,09fcd8053ca944d09a55be336b12f992,10*
G04 Gerber Generator version 0.2*
G04 Scale: 100 percent, Rotated: No, Reflected: No *
G04 Dimensions in millimeters *
G04 leading zeros omitted , absolute positions ,4 integer and 5 decimal *
%FSLAX45Y45*%
%MOMM*%

%ADD10C,0.1000*%
%ADD11C,0.2000*%
%ADD12C,0.1524*%
%ADD13C,0.2032*%
%ADD14C,0.2030*%
%ADD15C,0.2540*%
%ADD16C,0.0109*%
%ADD17C,0.1999*%
%ADD18C,0.4000*%

%LPD*%
G36*
X732028Y-2021687D02*
G01*
X714705Y-2021789D01*
X698500Y-2023618D01*
X688187Y-2025650D01*
X674471Y-2029358D01*
X664768Y-2032711D01*
X664057Y-2033219D01*
X653034Y-2037791D01*
X652627Y-2038299D01*
X652018Y-2038299D01*
X645668Y-2041601D01*
X642772Y-2043328D01*
X642366Y-2043328D01*
X636168Y-2047036D01*
X623570Y-2055368D01*
X619201Y-2058822D01*
X617677Y-2059686D01*
X617677Y-2060143D01*
X616712Y-2060549D01*
X613359Y-2063597D01*
X613105Y-2063597D01*
X606755Y-2069033D01*
X600456Y-2074925D01*
X599389Y-2076246D01*
X599084Y-2076246D01*
X595680Y-2079701D01*
X589280Y-2086813D01*
X581761Y-2095601D01*
X577189Y-2101596D01*
X577189Y-2102053D01*
X576580Y-2102815D01*
X575106Y-2106422D01*
X573887Y-2112670D01*
X574141Y-2117394D01*
X574700Y-2121052D01*
X575970Y-2124405D01*
X577494Y-2127504D01*
X579678Y-2130348D01*
X582777Y-2132990D01*
X586841Y-2134768D01*
X591362Y-2135022D01*
X595579Y-2133854D01*
X598932Y-2131517D01*
X607618Y-2121052D01*
X613867Y-2114042D01*
X620725Y-2107082D01*
X626364Y-2101951D01*
X626922Y-2101240D01*
X627227Y-2101240D01*
X637032Y-2093264D01*
X643940Y-2088286D01*
X649478Y-2084679D01*
X655675Y-2081022D01*
X655980Y-2081022D01*
X659384Y-2079040D01*
X659892Y-2079040D01*
X660603Y-2078482D01*
X671017Y-2073706D01*
X675792Y-2071725D01*
X688340Y-2067814D01*
X699566Y-2065223D01*
X713232Y-2063343D01*
X726643Y-2062988D01*
X735939Y-2063597D01*
X747166Y-2064969D01*
X760933Y-2068220D01*
X767334Y-2070049D01*
X768045Y-2070607D01*
X768858Y-2070607D01*
X780288Y-2075129D01*
X787095Y-2078482D01*
X787654Y-2078482D01*
X788111Y-2078989D01*
X795426Y-2082952D01*
X801624Y-2086762D01*
X812444Y-2094433D01*
X820318Y-2100935D01*
X830630Y-2110587D01*
X838098Y-2118563D01*
X847801Y-2130399D01*
X849985Y-2132330D01*
X852373Y-2133803D01*
X854964Y-2134819D01*
X860806Y-2134819D01*
X863396Y-2133803D01*
X866343Y-2132025D01*
X866343Y-2131568D01*
X866800Y-2131568D01*
X869492Y-2128621D01*
X871474Y-2125472D01*
X873201Y-2120493D01*
X873912Y-2116531D01*
X873912Y-2112213D01*
X872794Y-2106726D01*
X870458Y-2101392D01*
X867105Y-2096871D01*
X859282Y-2087575D01*
X853694Y-2081428D01*
X846531Y-2074164D01*
X831799Y-2061057D01*
X831443Y-2061057D01*
X828903Y-2058771D01*
X828141Y-2058416D01*
X823163Y-2054656D01*
X816203Y-2049932D01*
X816102Y-2049525D01*
X815695Y-2049525D01*
X803656Y-2042414D01*
X798677Y-2039874D01*
X798271Y-2039416D01*
X797610Y-2039416D01*
X796391Y-2038553D01*
X795934Y-2038553D01*
X786485Y-2034082D01*
X785977Y-2034082D01*
X780288Y-2031746D01*
X769721Y-2028342D01*
X763524Y-2026564D01*
X753872Y-2024481D01*
X743508Y-2022805D01*
G37*
G36*
X728370Y-2092502D02*
G01*
X717753Y-2092604D01*
X714705Y-2093061D01*
X707796Y-2093671D01*
X698703Y-2095296D01*
X691794Y-2097024D01*
X682040Y-2100122D01*
X672084Y-2104390D01*
X670712Y-2105152D01*
X670306Y-2105152D01*
X668070Y-2106574D01*
X667562Y-2106574D01*
X665835Y-2107692D01*
X665276Y-2107692D01*
X665276Y-2108250D01*
X664362Y-2108250D01*
X657606Y-2112518D01*
X650798Y-2117140D01*
X645261Y-2121306D01*
X645109Y-2121763D01*
X644601Y-2121763D01*
X636371Y-2128875D01*
X626668Y-2138730D01*
X616661Y-2150821D01*
X615289Y-2153158D01*
X615289Y-2153767D01*
X614934Y-2153767D01*
X613562Y-2157577D01*
X612800Y-2160981D01*
X612800Y-2168550D01*
X614019Y-2173020D01*
X615492Y-2176526D01*
X617982Y-2180082D01*
X619709Y-2181809D01*
X622249Y-2183587D01*
X624687Y-2184654D01*
X627075Y-2185314D01*
X631190Y-2185060D01*
X633780Y-2184196D01*
X635304Y-2183434D01*
X639064Y-2180336D01*
X645668Y-2172157D01*
X655015Y-2162556D01*
X662787Y-2156002D01*
X666546Y-2153107D01*
X676402Y-2146808D01*
X681634Y-2143963D01*
X682294Y-2143963D01*
X682701Y-2143455D01*
X688543Y-2140915D01*
X690016Y-2140508D01*
X690727Y-2140051D01*
X696417Y-2138172D01*
X704545Y-2136089D01*
X709117Y-2135225D01*
X717753Y-2134057D01*
X732485Y-2134362D01*
X743305Y-2136038D01*
X751281Y-2138172D01*
X759510Y-2140915D01*
X759968Y-2141372D01*
X761441Y-2141778D01*
X762101Y-2142236D01*
X765149Y-2143455D01*
X765556Y-2143963D01*
X766165Y-2143963D01*
X771448Y-2146808D01*
X779881Y-2152091D01*
X788720Y-2159000D01*
X794715Y-2164486D01*
X795070Y-2164486D01*
X795223Y-2164943D01*
X800862Y-2170684D01*
X808532Y-2180031D01*
X811022Y-2182469D01*
X814476Y-2184450D01*
X817524Y-2185263D01*
X821182Y-2185263D01*
X823671Y-2184501D01*
X825753Y-2183485D01*
X828141Y-2181860D01*
X830376Y-2179421D01*
X832510Y-2176119D01*
X833628Y-2173782D01*
X833932Y-2172208D01*
X834237Y-2171649D01*
X835050Y-2168245D01*
X835050Y-2160320D01*
X834542Y-2159558D01*
X834237Y-2157323D01*
X831799Y-2151735D01*
X827024Y-2145487D01*
X821283Y-2138883D01*
X816000Y-2133346D01*
X809447Y-2127097D01*
X804672Y-2122932D01*
X797763Y-2117547D01*
X797509Y-2117547D01*
X795680Y-2116023D01*
X788974Y-2111654D01*
X788416Y-2111654D01*
X788416Y-2111095D01*
X788009Y-2111095D01*
X782370Y-2107692D01*
X781202Y-2107336D01*
X779322Y-2106015D01*
X778764Y-2106015D01*
X777646Y-2105202D01*
X776173Y-2104847D01*
X775766Y-2104390D01*
X767130Y-2100681D01*
X766368Y-2100681D01*
X766114Y-2100173D01*
X764286Y-2099767D01*
X763828Y-2099360D01*
X755853Y-2096973D01*
X747064Y-2094890D01*
X736803Y-2093366D01*
G37*
G36*
X722934Y-2163724D02*
G01*
X714705Y-2164130D01*
X708456Y-2165299D01*
X701192Y-2167128D01*
X695909Y-2169058D01*
X689610Y-2171801D01*
X677926Y-2178862D01*
X671423Y-2183892D01*
X667969Y-2187041D01*
X667816Y-2187498D01*
X667410Y-2187498D01*
X665276Y-2189581D01*
X665276Y-2190038D01*
X664718Y-2190038D01*
X659536Y-2195779D01*
X654253Y-2202688D01*
X654253Y-2203551D01*
X653897Y-2203551D01*
X652526Y-2207056D01*
X651865Y-2209647D01*
X651357Y-2214067D01*
X651662Y-2218994D01*
X652932Y-2223617D01*
X654913Y-2228037D01*
X657250Y-2231034D01*
X659536Y-2233015D01*
X663448Y-2234996D01*
X666597Y-2235606D01*
X671626Y-2235047D01*
X672084Y-2234438D01*
X672693Y-2234438D01*
X675538Y-2232660D01*
X677722Y-2230678D01*
X684479Y-2222804D01*
X688949Y-2218537D01*
X693724Y-2214880D01*
X698804Y-2211679D01*
X699160Y-2211679D01*
X700887Y-2210562D01*
X701344Y-2210562D01*
X702614Y-2209698D01*
X703326Y-2209698D01*
X703580Y-2209190D01*
X705408Y-2208834D01*
X705866Y-2208428D01*
X711454Y-2206599D01*
X723493Y-2204974D01*
X732485Y-2205786D01*
X738428Y-2207310D01*
X744474Y-2209444D01*
X747623Y-2210917D01*
X753872Y-2214778D01*
X759510Y-2219096D01*
X763422Y-2222754D01*
X767334Y-2227072D01*
X770331Y-2230882D01*
X771652Y-2232202D01*
X774496Y-2234184D01*
X776427Y-2234996D01*
X780186Y-2235606D01*
X784758Y-2234996D01*
X787806Y-2233269D01*
X790041Y-2231542D01*
X792378Y-2228697D01*
X794156Y-2225598D01*
X795324Y-2222500D01*
X796188Y-2219096D01*
X796442Y-2214067D01*
X795985Y-2209698D01*
X795274Y-2206752D01*
X793496Y-2202586D01*
X788720Y-2196338D01*
X784250Y-2191359D01*
X777392Y-2184806D01*
X769924Y-2178862D01*
X761492Y-2173528D01*
X757682Y-2171496D01*
X757072Y-2171496D01*
X756818Y-2170988D01*
X755243Y-2170633D01*
X754532Y-2170125D01*
X747166Y-2167331D01*
X742848Y-2166112D01*
X737108Y-2164892D01*
X730097Y-2163978D01*
G37*
G36*
X722528Y-2244090D02*
G01*
X719277Y-2244496D01*
X716686Y-2245156D01*
X714502Y-2246020D01*
X713740Y-2246528D01*
X713181Y-2246528D01*
X707745Y-2250084D01*
X705002Y-2252776D01*
X701649Y-2256739D01*
X701649Y-2257196D01*
X700176Y-2259177D01*
X698906Y-2261565D01*
X698601Y-2261768D01*
X698601Y-2262428D01*
X697534Y-2264359D01*
X696061Y-2268575D01*
X694893Y-2273096D01*
X694283Y-2277008D01*
X693877Y-2281783D01*
X694232Y-2288844D01*
X694639Y-2291943D01*
X696214Y-2297938D01*
X697179Y-2300630D01*
X699312Y-2305405D01*
X700836Y-2307945D01*
X704138Y-2312365D01*
X707796Y-2315870D01*
X711403Y-2318461D01*
X711809Y-2318461D01*
X713435Y-2319629D01*
X713994Y-2319629D01*
X714705Y-2320137D01*
X717092Y-2321001D01*
X719937Y-2321712D01*
X727913Y-2321712D01*
X731367Y-2320798D01*
X734415Y-2319528D01*
X738936Y-2316734D01*
X742594Y-2313635D01*
X747420Y-2307234D01*
X749706Y-2303018D01*
X751738Y-2297836D01*
X753110Y-2292502D01*
X753618Y-2288540D01*
X753922Y-2283764D01*
X753770Y-2278735D01*
X753110Y-2273960D01*
X752449Y-2270861D01*
X751840Y-2269083D01*
X751840Y-2268474D01*
X749808Y-2263089D01*
X749249Y-2262479D01*
X749249Y-2261819D01*
X747979Y-2259888D01*
X747928Y-2259279D01*
X743508Y-2253386D01*
X740257Y-2250287D01*
X738073Y-2248611D01*
X735177Y-2246833D01*
X734618Y-2246833D01*
X733348Y-2245969D01*
X727811Y-2244344D01*
G37*
D10*
X614426Y-3478021D02*
G01*
X640334Y-3478021D01*
X626110Y-3497071D01*
X633221Y-3497071D01*
X638047Y-3499357D01*
X640334Y-3501644D01*
X642620Y-3508755D01*
X642620Y-3513581D01*
X640334Y-3520694D01*
X635507Y-3525520D01*
X628395Y-3527805D01*
X621537Y-3527805D01*
X614426Y-3525520D01*
X611886Y-3522979D01*
X609600Y-3518407D01*
X660654Y-3515868D02*
G01*
X658368Y-3518407D01*
X660654Y-3520694D01*
X662939Y-3518407D01*
X660654Y-3515868D01*
X683260Y-3478021D02*
G01*
X709421Y-3478021D01*
X695197Y-3497071D01*
X702310Y-3497071D01*
X706881Y-3499357D01*
X709421Y-3501644D01*
X711707Y-3508755D01*
X711707Y-3513581D01*
X709421Y-3520694D01*
X704595Y-3525520D01*
X697484Y-3527805D01*
X690371Y-3527805D01*
X683260Y-3525520D01*
X680973Y-3522979D01*
X678687Y-3518407D01*
X899160Y-3489960D02*
G01*
X896620Y-3485134D01*
X892047Y-3480562D01*
X887221Y-3478021D01*
X877823Y-3478021D01*
X872997Y-3480562D01*
X868426Y-3485134D01*
X865886Y-3489960D01*
X863600Y-3497071D01*
X863600Y-3508755D01*
X865886Y-3515868D01*
X868426Y-3520694D01*
X872997Y-3525520D01*
X877823Y-3527805D01*
X887221Y-3527805D01*
X892047Y-3525520D01*
X896620Y-3520694D01*
X899160Y-3515868D01*
X899160Y-3508755D01*
X887221Y-3508755D02*
G01*
X899160Y-3508755D01*
X914654Y-3478021D02*
G01*
X914654Y-3527805D01*
X914654Y-3478021D02*
G01*
X947673Y-3527805D01*
X947673Y-3478021D02*
G01*
X947673Y-3527805D01*
X963421Y-3478021D02*
G01*
X963421Y-3527805D01*
X963421Y-3478021D02*
G01*
X979931Y-3478021D01*
X987044Y-3480562D01*
X991615Y-3485134D01*
X994155Y-3489960D01*
X996442Y-3497071D01*
X996442Y-3508755D01*
X994155Y-3515868D01*
X991615Y-3520694D01*
X987044Y-3525520D01*
X979931Y-3527805D01*
X963421Y-3527805D01*
X1130300Y-3478021D02*
G01*
X1130300Y-3527805D01*
X1130300Y-3478021D02*
G01*
X1146810Y-3478021D01*
X1153921Y-3480562D01*
X1158747Y-3485134D01*
X1161034Y-3489960D01*
X1163320Y-3497071D01*
X1163320Y-3508755D01*
X1161034Y-3515868D01*
X1158747Y-3520694D01*
X1153921Y-3525520D01*
X1146810Y-3527805D01*
X1130300Y-3527805D01*
X1179068Y-3478021D02*
G01*
X1179068Y-3527805D01*
X1208786Y-3478021D02*
G01*
X1201673Y-3480562D01*
X1196847Y-3487673D01*
X1194562Y-3499357D01*
X1194562Y-3506470D01*
X1196847Y-3518407D01*
X1201673Y-3525520D01*
X1208786Y-3527805D01*
X1213612Y-3527805D01*
X1220470Y-3525520D01*
X1225295Y-3518407D01*
X1227581Y-3506470D01*
X1227581Y-3499357D01*
X1225295Y-3487673D01*
X1220470Y-3480562D01*
X1213612Y-3478021D01*
X1208786Y-3478021D01*
X1371600Y-3478021D02*
G01*
X1371600Y-3527805D01*
X1371600Y-3478021D02*
G01*
X1392936Y-3478021D01*
X1400047Y-3480562D01*
X1402334Y-3482847D01*
X1404620Y-3487673D01*
X1404620Y-3492245D01*
X1402334Y-3497071D01*
X1400047Y-3499357D01*
X1392936Y-3501644D01*
X1371600Y-3501644D01*
X1388110Y-3501644D02*
G01*
X1404620Y-3527805D01*
X1453387Y-3485134D02*
G01*
X1448562Y-3480562D01*
X1441450Y-3478021D01*
X1432052Y-3478021D01*
X1424939Y-3480562D01*
X1420368Y-3485134D01*
X1420368Y-3489960D01*
X1422654Y-3494786D01*
X1424939Y-3497071D01*
X1429765Y-3499357D01*
X1443989Y-3504184D01*
X1448562Y-3506470D01*
X1451102Y-3508755D01*
X1453387Y-3513581D01*
X1453387Y-3520694D01*
X1448562Y-3525520D01*
X1441450Y-3527805D01*
X1432052Y-3527805D01*
X1424939Y-3525520D01*
X1420368Y-3520694D01*
X1485645Y-3478021D02*
G01*
X1485645Y-3527805D01*
X1468881Y-3478021D02*
G01*
X1502155Y-3478021D01*
X1651000Y-3478021D02*
G01*
X1651000Y-3527805D01*
X1651000Y-3478021D02*
G01*
X1672336Y-3478021D01*
X1679447Y-3480562D01*
X1681734Y-3482847D01*
X1684020Y-3487673D01*
X1684020Y-3492245D01*
X1681734Y-3497071D01*
X1679447Y-3499357D01*
X1672336Y-3501644D01*
X1651000Y-3501644D01*
X1667510Y-3501644D02*
G01*
X1684020Y-3527805D01*
X1699768Y-3478021D02*
G01*
X1732787Y-3527805D01*
X1732787Y-3478021D02*
G01*
X1699768Y-3527805D01*
X1921510Y-3478021D02*
G01*
X1921510Y-3527805D01*
X1905000Y-3478021D02*
G01*
X1938020Y-3478021D01*
X1953768Y-3478021D02*
G01*
X1986788Y-3527805D01*
X1986788Y-3478021D02*
G01*
X1953768Y-3527805D01*
D11*
X939678Y-2096140D02*
G01*
X939678Y-2191644D01*
X939678Y-2191644D02*
G01*
X994288Y-2191644D01*
X1047120Y-2127890D02*
G01*
X1037976Y-2132462D01*
X1028832Y-2141606D01*
X1024260Y-2155322D01*
X1024260Y-2164466D01*
X1028832Y-2177928D01*
X1037976Y-2187072D01*
X1047120Y-2191644D01*
X1060582Y-2191644D01*
X1069726Y-2187072D01*
X1078870Y-2177928D01*
X1083442Y-2164466D01*
X1083442Y-2155322D01*
X1078870Y-2141606D01*
X1069726Y-2132462D01*
X1060582Y-2127890D01*
X1047120Y-2127890D01*
X1113414Y-2096140D02*
G01*
X1113414Y-2191644D01*
X1113414Y-2096140D02*
G01*
X1154308Y-2096140D01*
X1168024Y-2100712D01*
X1172596Y-2105284D01*
X1177168Y-2114428D01*
X1177168Y-2123572D01*
X1172596Y-2132462D01*
X1168024Y-2137034D01*
X1154308Y-2141606D01*
X1113414Y-2141606D01*
X1145164Y-2141606D02*
G01*
X1177168Y-2191644D01*
X1261496Y-2127890D02*
G01*
X1261496Y-2191644D01*
X1261496Y-2141606D02*
G01*
X1252606Y-2132462D01*
X1243462Y-2127890D01*
X1229746Y-2127890D01*
X1220602Y-2132462D01*
X1211712Y-2141606D01*
X1207140Y-2155322D01*
X1207140Y-2164466D01*
X1211712Y-2177928D01*
X1220602Y-2187072D01*
X1229746Y-2191644D01*
X1243462Y-2191644D01*
X1252606Y-2187072D01*
X1261496Y-2177928D01*
X1314328Y-2096140D02*
G01*
X1300612Y-2100712D01*
X1296040Y-2109856D01*
X1296040Y-2119000D01*
X1300612Y-2127890D01*
X1309756Y-2132462D01*
X1328044Y-2137034D01*
X1341506Y-2141606D01*
X1350650Y-2150750D01*
X1355222Y-2159894D01*
X1355222Y-2173356D01*
X1350650Y-2182500D01*
X1346078Y-2187072D01*
X1332616Y-2191644D01*
X1314328Y-2191644D01*
X1300612Y-2187072D01*
X1296040Y-2182500D01*
X1291722Y-2173356D01*
X1291722Y-2159894D01*
X1296040Y-2150750D01*
X1305184Y-2141606D01*
X1318900Y-2137034D01*
X1337188Y-2132462D01*
X1346078Y-2127890D01*
X1350650Y-2119000D01*
X1350650Y-2109856D01*
X1346078Y-2100712D01*
X1332616Y-2096140D01*
X1314328Y-2096140D01*
X1389766Y-2119000D02*
G01*
X1389766Y-2114428D01*
X1394338Y-2105284D01*
X1398910Y-2100712D01*
X1408054Y-2096140D01*
X1426088Y-2096140D01*
X1435232Y-2100712D01*
X1439804Y-2105284D01*
X1444376Y-2114428D01*
X1444376Y-2123572D01*
X1439804Y-2132462D01*
X1430660Y-2146178D01*
X1385194Y-2191644D01*
X1448948Y-2191644D01*
X1533530Y-2109856D02*
G01*
X1528958Y-2100712D01*
X1515242Y-2096140D01*
X1506098Y-2096140D01*
X1492636Y-2100712D01*
X1483492Y-2114428D01*
X1478920Y-2137034D01*
X1478920Y-2159894D01*
X1483492Y-2177928D01*
X1492636Y-2187072D01*
X1506098Y-2191644D01*
X1510670Y-2191644D01*
X1524386Y-2187072D01*
X1533530Y-2177928D01*
X1538102Y-2164466D01*
X1538102Y-2159894D01*
X1533530Y-2146178D01*
X1524386Y-2137034D01*
X1510670Y-2132462D01*
X1506098Y-2132462D01*
X1492636Y-2137034D01*
X1483492Y-2146178D01*
X1478920Y-2159894D01*
X1622430Y-2109856D02*
G01*
X1617858Y-2100712D01*
X1604396Y-2096140D01*
X1595252Y-2096140D01*
X1581536Y-2100712D01*
X1572646Y-2114428D01*
X1568074Y-2137034D01*
X1568074Y-2159894D01*
X1572646Y-2177928D01*
X1581536Y-2187072D01*
X1595252Y-2191644D01*
X1599824Y-2191644D01*
X1613540Y-2187072D01*
X1622430Y-2177928D01*
X1627002Y-2164466D01*
X1627002Y-2159894D01*
X1622430Y-2146178D01*
X1613540Y-2137034D01*
X1599824Y-2132462D01*
X1595252Y-2132462D01*
X1581536Y-2137034D01*
X1572646Y-2146178D01*
X1568074Y-2159894D01*
X1688978Y-2096140D02*
G01*
X1688978Y-2191644D01*
X1656974Y-2096140D02*
G01*
X1720728Y-2096140D01*
D10*
X939800Y-2281681D02*
G01*
X939800Y-2276855D01*
X942086Y-2269744D01*
X946912Y-2267457D01*
X951737Y-2267457D01*
X956310Y-2269744D01*
X965707Y-2276855D01*
X970534Y-2279395D01*
X975360Y-2279395D01*
X979931Y-2276855D01*
X982471Y-2272284D01*
X939800Y-2276855D02*
G01*
X942086Y-2272284D01*
X946912Y-2269744D01*
X951737Y-2269744D01*
X956310Y-2272284D01*
X965707Y-2279395D01*
X970534Y-2281681D01*
X975360Y-2281681D01*
X979931Y-2279395D01*
X982471Y-2272284D01*
X982471Y-2267457D01*
X1030986Y-2253234D02*
G01*
X1026413Y-2248662D01*
X1019302Y-2246121D01*
X1009650Y-2246121D01*
X1002792Y-2248662D01*
X997965Y-2253234D01*
X997965Y-2258060D01*
X1000252Y-2262886D01*
X1002792Y-2265171D01*
X1007363Y-2267457D01*
X1021587Y-2272284D01*
X1026413Y-2274570D01*
X1028700Y-2276855D01*
X1030986Y-2281681D01*
X1030986Y-2288794D01*
X1026413Y-2293620D01*
X1019302Y-2295905D01*
X1009650Y-2295905D01*
X1002792Y-2293620D01*
X997965Y-2288794D01*
X1046734Y-2262886D02*
G01*
X1046734Y-2286507D01*
X1049020Y-2293620D01*
X1053845Y-2295905D01*
X1060704Y-2295905D01*
X1065529Y-2293620D01*
X1072642Y-2286507D01*
X1072642Y-2262886D02*
G01*
X1072642Y-2295905D01*
X1088136Y-2262886D02*
G01*
X1088136Y-2295905D01*
X1088136Y-2272284D02*
G01*
X1095247Y-2265171D01*
X1100073Y-2262886D01*
X1107186Y-2262886D01*
X1111757Y-2265171D01*
X1114297Y-2272284D01*
X1114297Y-2295905D01*
X1114297Y-2272284D02*
G01*
X1121410Y-2265171D01*
X1125981Y-2262886D01*
X1133094Y-2262886D01*
X1137920Y-2265171D01*
X1140205Y-2272284D01*
X1140205Y-2295905D01*
X1155954Y-2246121D02*
G01*
X1158239Y-2248662D01*
X1160526Y-2246121D01*
X1158239Y-2243836D01*
X1155954Y-2246121D01*
X1158239Y-2262886D02*
G01*
X1158239Y-2295905D01*
X1183131Y-2246121D02*
G01*
X1183131Y-2286507D01*
X1185671Y-2293620D01*
X1190244Y-2295905D01*
X1195070Y-2295905D01*
X1176273Y-2262886D02*
G01*
X1192784Y-2262886D01*
X999236Y-2945384D02*
G01*
X996950Y-2940812D01*
X992378Y-2936239D01*
X987805Y-2933954D01*
X978915Y-2933954D01*
X974344Y-2936239D01*
X969771Y-2940812D01*
X967486Y-2945384D01*
X965200Y-2952242D01*
X965200Y-2963671D01*
X967486Y-2970529D01*
X969771Y-2974847D01*
X974344Y-2979420D01*
X978915Y-2981705D01*
X987805Y-2981705D01*
X992378Y-2979420D01*
X996950Y-2974847D01*
X999236Y-2970529D01*
X1014221Y-2943097D02*
G01*
X1018794Y-2940812D01*
X1025652Y-2933954D01*
X1025652Y-2981705D01*
X1299463Y-2947415D02*
G01*
X1301750Y-2951987D01*
X1306321Y-2956560D01*
X1310894Y-2958845D01*
X1319784Y-2958845D01*
X1324355Y-2956560D01*
X1328928Y-2951987D01*
X1331213Y-2947415D01*
X1333500Y-2940557D01*
X1333500Y-2929128D01*
X1331213Y-2922270D01*
X1328928Y-2917952D01*
X1324355Y-2913379D01*
X1319784Y-2911094D01*
X1310894Y-2911094D01*
X1306321Y-2913379D01*
X1301750Y-2917952D01*
X1299463Y-2922270D01*
X1282192Y-2947415D02*
G01*
X1282192Y-2949702D01*
X1279905Y-2954273D01*
X1277620Y-2956560D01*
X1273047Y-2958845D01*
X1263904Y-2958845D01*
X1259331Y-2956560D01*
X1257045Y-2954273D01*
X1254760Y-2949702D01*
X1254760Y-2945129D01*
X1257045Y-2940557D01*
X1261618Y-2933700D01*
X1284478Y-2911094D01*
X1252473Y-2911094D01*
X431800Y-2986786D02*
G01*
X472694Y-2986786D01*
D12*
X1041400Y-1078484D02*
G01*
X1041400Y-1187450D01*
X1041400Y-1078484D02*
G01*
X1083055Y-1187450D01*
X1124457Y-1078484D02*
G01*
X1083055Y-1187450D01*
X1124457Y-1078484D02*
G01*
X1124457Y-1187450D01*
X1158747Y-1078484D02*
G01*
X1158747Y-1187450D01*
X1231645Y-1078484D02*
G01*
X1158747Y-1151128D01*
X1184910Y-1125220D02*
G01*
X1231645Y-1187450D01*
X1265936Y-1099312D02*
G01*
X1276350Y-1093978D01*
X1291844Y-1078484D01*
X1291844Y-1187450D01*
D13*
X650006Y-761166D02*
G01*
X650006Y-954968D01*
X650006Y-761166D02*
G01*
X770148Y-761166D01*
X650006Y-853368D02*
G01*
X723920Y-853368D01*
X650006Y-954968D02*
G01*
X770148Y-954968D01*
X960394Y-788852D02*
G01*
X941852Y-770310D01*
X914166Y-761166D01*
X877336Y-761166D01*
X849396Y-770310D01*
X831108Y-788852D01*
X831108Y-807140D01*
X840252Y-825682D01*
X849396Y-835080D01*
X867938Y-844224D01*
X923310Y-862766D01*
X941852Y-871910D01*
X950996Y-881054D01*
X960394Y-899596D01*
X960394Y-927282D01*
X941852Y-945824D01*
X914166Y-954968D01*
X877336Y-954968D01*
X849396Y-945824D01*
X831108Y-927282D01*
X1021354Y-761166D02*
G01*
X1021354Y-954968D01*
X1021354Y-761166D02*
G01*
X1104412Y-761166D01*
X1132098Y-770310D01*
X1141496Y-779454D01*
X1150640Y-797996D01*
X1150640Y-825682D01*
X1141496Y-844224D01*
X1132098Y-853368D01*
X1104412Y-862766D01*
X1021354Y-862766D01*
X1211600Y-797996D02*
G01*
X1230142Y-788852D01*
X1257828Y-761166D01*
X1257828Y-954968D01*
X1327932Y-807140D02*
G01*
X1327932Y-797996D01*
X1337076Y-779454D01*
X1346474Y-770310D01*
X1365016Y-761166D01*
X1401846Y-761166D01*
X1420388Y-770310D01*
X1429532Y-779454D01*
X1438676Y-797996D01*
X1438676Y-816538D01*
X1429532Y-835080D01*
X1410990Y-862766D01*
X1318788Y-954968D01*
X1448074Y-954968D01*
X1509034Y-761166D02*
G01*
X1509034Y-954968D01*
X1509034Y-761166D02*
G01*
X1629176Y-761166D01*
X1509034Y-853368D02*
G01*
X1582948Y-853368D01*
X1509034Y-954968D02*
G01*
X1629176Y-954968D01*
D10*
X2057145Y-2006600D02*
G01*
X2009393Y-2006600D01*
X2057145Y-2006600D02*
G01*
X2057145Y-2027173D01*
X2054859Y-2033778D01*
X2052574Y-2036063D01*
X2048002Y-2038350D01*
X2043429Y-2038350D01*
X2038858Y-2036063D01*
X2036572Y-2033778D01*
X2034286Y-2027173D01*
X2034286Y-2006600D01*
X2034286Y-2022602D02*
G01*
X2009393Y-2038350D01*
X2048002Y-2053336D02*
G01*
X2050288Y-2057907D01*
X2057145Y-2064765D01*
X2009393Y-2064765D01*
X482600Y-2450845D02*
G01*
X482600Y-2403094D01*
X482600Y-2450845D02*
G01*
X462026Y-2450845D01*
X455421Y-2448560D01*
X453136Y-2446273D01*
X450850Y-2441702D01*
X450850Y-2437129D01*
X453136Y-2432557D01*
X455421Y-2430271D01*
X462026Y-2427986D01*
X482600Y-2427986D01*
X466597Y-2427986D02*
G01*
X450850Y-2403094D01*
X433578Y-2439415D02*
G01*
X433578Y-2441702D01*
X431292Y-2446273D01*
X429005Y-2448560D01*
X424434Y-2450845D01*
X415289Y-2450845D01*
X410718Y-2448560D01*
X408431Y-2446273D01*
X406145Y-2441702D01*
X406145Y-2437129D01*
X408431Y-2432557D01*
X413004Y-2425700D01*
X435863Y-2403094D01*
X403860Y-2403094D01*
X774700Y-2971545D02*
G01*
X774700Y-2923794D01*
X774700Y-2971545D02*
G01*
X754126Y-2971545D01*
X747521Y-2969260D01*
X745236Y-2966973D01*
X742950Y-2962402D01*
X742950Y-2957829D01*
X745236Y-2953257D01*
X747521Y-2950971D01*
X754126Y-2948686D01*
X774700Y-2948686D01*
X758697Y-2948686D02*
G01*
X742950Y-2923794D01*
X723392Y-2971545D02*
G01*
X698245Y-2971545D01*
X711962Y-2953257D01*
X705104Y-2953257D01*
X700531Y-2950971D01*
X698245Y-2948686D01*
X695960Y-2941828D01*
X695960Y-2937255D01*
X698245Y-2930652D01*
X702818Y-2926079D01*
X709676Y-2923794D01*
X716534Y-2923794D01*
X723392Y-2926079D01*
X725678Y-2928365D01*
X727963Y-2932937D01*
G36*
X417220Y-2707792D02*
G01*
X457200Y-2737764D01*
X497179Y-2707792D01*
G37*
D12*
X912939Y-2523980D02*
G01*
X912939Y-2664980D01*
X1093660Y-2664980D02*
G01*
X1093660Y-2523980D01*
X1078420Y-2508740D02*
G01*
X928179Y-2508740D01*
X912939Y-2886219D02*
G01*
X912939Y-2745219D01*
X1093660Y-2745219D02*
G01*
X1093660Y-2886219D01*
X1078420Y-2901459D02*
G01*
X928179Y-2901459D01*
X1373060Y-2873519D02*
G01*
X1373060Y-2732519D01*
X1192339Y-2732519D02*
G01*
X1192339Y-2873519D01*
X1207579Y-2888759D02*
G01*
X1357820Y-2888759D01*
X1373060Y-2511280D02*
G01*
X1373060Y-2652280D01*
X1192339Y-2652280D02*
G01*
X1192339Y-2511280D01*
X1207579Y-2496040D02*
G01*
X1357820Y-2496040D01*
D13*
X723900Y-3187700D02*
G01*
X533400Y-3187700D01*
X533400Y-3441700D01*
X2057400Y-3441700D01*
X2057400Y-3187700D01*
D14*
X2057400Y-3187700D02*
G01*
X723900Y-3187700D01*
D11*
X557199Y-2757799D02*
G01*
X557199Y-2917799D01*
X357200Y-2917799D01*
X357200Y-2757799D01*
X357200Y-2677800D02*
G01*
X357200Y-2517800D01*
X557199Y-2517800D01*
X557199Y-2677800D01*
X557199Y-2917799D02*
G01*
X557199Y-2917799D01*
X527199Y-2947799D01*
X387200Y-2947799D01*
X387200Y-2947799D01*
X357200Y-2917799D01*
D15*
X542071Y-1751784D02*
G01*
X331106Y-1751784D01*
X742071Y-1751784D02*
G01*
X718301Y-1751784D01*
X942070Y-1751784D02*
G01*
X918301Y-1751784D01*
X1142070Y-1751784D02*
G01*
X1118301Y-1751784D01*
X1342069Y-1751784D02*
G01*
X1318300Y-1751784D01*
X1542069Y-1751784D02*
G01*
X1518300Y-1751784D01*
X1930151Y-1751784D02*
G01*
X1718299Y-1751784D01*
X331106Y-1692023D02*
G01*
X331106Y-1751784D01*
X331106Y-1492023D02*
G01*
X331106Y-1515793D01*
X331106Y-1292024D02*
G01*
X331106Y-1315793D01*
X331106Y-1092024D02*
G01*
X331106Y-1115794D01*
X331106Y-892025D02*
G01*
X331106Y-915794D01*
X331106Y-692025D02*
G01*
X331106Y-715794D01*
X331106Y-492025D02*
G01*
X331106Y-515795D01*
X331106Y-292026D02*
G01*
X331106Y-315795D01*
X331106Y632299D02*
G01*
X331106Y-115796D01*
X1930151Y-1692023D02*
G01*
X1930151Y-1751784D01*
X1930151Y-1491998D02*
G01*
X1930151Y-1515793D01*
X1930151Y-1291998D02*
G01*
X1930151Y-1315768D01*
X1930151Y-1091999D02*
G01*
X1930151Y-1115768D01*
X1930151Y-891999D02*
G01*
X1930151Y-915769D01*
X1930151Y-692000D02*
G01*
X1930151Y-715769D01*
X1930151Y-492000D02*
G01*
X1930151Y-515769D01*
X1930151Y-292000D02*
G01*
X1930151Y-315770D01*
X1930151Y648210D02*
G01*
X1930151Y-115770D01*
X1930151Y648210D02*
G01*
X330154Y648210D01*
X430154Y-51788D02*
G01*
X1830151Y-51788D01*
X1630151Y48211D02*
G01*
X630153Y48211D01*
X630153Y548210D01*
X730153Y548210D01*
X730153Y248211D01*
X830153Y248211D01*
X830153Y548210D01*
X930153Y548210D01*
X930153Y248211D01*
X1030152Y248211D01*
X1030152Y548210D01*
X1130152Y548210D01*
X1130152Y248211D01*
X1230152Y248211D01*
X1230152Y548210D01*
X1830151Y548210D01*
X530153Y-251787D02*
G01*
X530153Y-1551785D01*
X1730151Y-1551785D01*
X1730151Y-251787D01*
X530153Y-251787D01*
X2026437Y-2271598D02*
G01*
X1451457Y-2271598D01*
X1451457Y-3011601D01*
X2026437Y-3011601D01*
X2026437Y-2271598D01*
D17*
X2020697Y-2771597D02*
G01*
X1970709Y-2771597D01*
X1970709Y-2511602D01*
X2020697Y-2511602D01*
D12*
X1787890Y-2079619D02*
G01*
X1787890Y-2208113D01*
X1971309Y-2208113D01*
X1971309Y-2079619D01*
X1787890Y-1984380D02*
G01*
X1787890Y-1855886D01*
X1971309Y-1855886D01*
X1971309Y-1984380D01*
X352790Y-2244719D02*
G01*
X352790Y-2373213D01*
X536209Y-2373213D01*
X536209Y-2244719D01*
X352790Y-2149480D02*
G01*
X352790Y-2020986D01*
X536209Y-2020986D01*
X536209Y-2149480D01*
X828309Y-2670180D02*
G01*
X828309Y-2541686D01*
X644890Y-2541686D01*
X644890Y-2670180D01*
X828309Y-2765419D02*
G01*
X828309Y-2893913D01*
X644890Y-2893913D01*
X644890Y-2765419D01*
G75*
G01*
X1093660Y-2523980D02*
G03*
X1078420Y-2508740I-15240J0D01*
G75*
G01*
X928180Y-2508740D02*
G03*
X912940Y-2523980I0J-15240D01*
G75*
G01*
X1093660Y-2886220D02*
G02*
X1078420Y-2901460I-15240J0D01*
G75*
G01*
X928180Y-2901460D02*
G02*
X912940Y-2886220I0J15240D01*
G75*
G01*
X1192340Y-2873520D02*
G03*
X1207580Y-2888760I15240J0D01*
G75*
G01*
X1357820Y-2888760D02*
G03*
X1373060Y-2873520I0J15240D01*
G75*
G01*
X1192340Y-2511280D02*
G02*
X1207580Y-2496040I15240J0D01*
G75*
G01*
X1357820Y-2496040D02*
G02*
X1373060Y-2511280I0J-15240D01*
D18*
G75*
G01
X188214Y-55702D02*
G03X188214Y-55702I-19990J0D01*
M02*
