G04 Layer: BottomSilkscreenLayer*
G04 EasyEDA v6.5.51, 2025-11-13 11:14:40*
G04 bf1f3799a3224107ae82f300eded96c1,09fcd8053ca944d09a55be336b12f992,10*
G04 Gerber Generator version 0.2*
G04 Scale: 100 percent, Rotated: No, Reflected: No *
G04 Dimensions in millimeters *
G04 leading zeros omitted , absolute positions ,4 integer and 5 decimal *
%FSLAX45Y45*%
%MOMM*%

%ADD10C,0.1000*%
%ADD11C,0.4000*%
%ADD12C,0.1524*%
%ADD13C,0.2540*%
%ADD14C,1.0000*%
%ADD15C,0.0118*%

%LPD*%
G36*
X340512Y-2247341D02*
G01*
X339496Y-2248458D01*
X338328Y-2254808D01*
X337972Y-2258060D01*
X337515Y-2259533D01*
X337261Y-2262378D01*
X336854Y-2263800D01*
X336600Y-2266543D01*
X336194Y-2267966D01*
X334619Y-2279294D01*
X333959Y-2281224D01*
X331825Y-2282748D01*
X331266Y-2282748D01*
X329996Y-2283460D01*
X326948Y-2284526D01*
X326237Y-2285034D01*
X325069Y-2285288D01*
X315468Y-2290622D01*
X313588Y-2290622D01*
X303022Y-2281936D01*
X302717Y-2281936D01*
X297637Y-2277872D01*
X297434Y-2277516D01*
X291541Y-2272690D01*
X290322Y-2272284D01*
X289255Y-2272538D01*
X270205Y-2294991D01*
X270002Y-2295906D01*
X270205Y-2297480D01*
X277368Y-2309469D01*
X277368Y-2309825D01*
X282702Y-2318664D01*
X285394Y-2323592D01*
X285394Y-2325065D01*
X280720Y-2336139D01*
X280720Y-2336952D01*
X280416Y-2337206D01*
X278079Y-2345334D01*
X277215Y-2347264D01*
X276656Y-2348026D01*
X275285Y-2348738D01*
X272897Y-2348992D01*
X271627Y-2349500D01*
X269494Y-2349754D01*
X267970Y-2350312D01*
X262229Y-2351328D01*
X261010Y-2351836D01*
X258571Y-2352141D01*
X257352Y-2352649D01*
X254914Y-2352903D01*
X253644Y-2353411D01*
X251460Y-2353665D01*
X249682Y-2354427D01*
X248920Y-2355545D01*
X248920Y-2387752D01*
X249885Y-2389073D01*
X251815Y-2389428D01*
X252679Y-2389784D01*
X255016Y-2390089D01*
X256235Y-2390597D01*
X258673Y-2390851D01*
X259842Y-2391359D01*
X262178Y-2391664D01*
X263398Y-2392172D01*
X265836Y-2392426D01*
X267055Y-2392984D01*
X269138Y-2393188D01*
X270662Y-2393746D01*
X272796Y-2394000D01*
X275691Y-2394762D01*
X276656Y-2396032D01*
X278028Y-2400350D01*
X278231Y-2401874D01*
X278688Y-2402687D01*
X278942Y-2404262D01*
X279349Y-2405075D01*
X279603Y-2406700D01*
X280060Y-2407412D01*
X280060Y-2408174D01*
X284734Y-2419502D01*
X284734Y-2420721D01*
X272084Y-2442718D01*
X272084Y-2443073D01*
X271780Y-2443073D01*
X270052Y-2446172D01*
X270052Y-2448102D01*
X288950Y-2470454D01*
X289915Y-2471064D01*
X291287Y-2470810D01*
X296367Y-2466594D01*
X296367Y-2466289D01*
X296672Y-2466289D01*
X308762Y-2456586D01*
X309067Y-2456078D01*
X309372Y-2456078D01*
X311099Y-2454554D01*
X312521Y-2453944D01*
X314096Y-2454554D01*
X322580Y-2459990D01*
X323342Y-2459990D01*
X324358Y-2458770D01*
X324358Y-2458059D01*
X324662Y-2457805D01*
X328320Y-2447340D01*
X328320Y-2446883D01*
X330352Y-2441651D01*
X331673Y-2437384D01*
X332994Y-2433980D01*
X332994Y-2433320D01*
X333502Y-2432862D01*
X333705Y-2431592D01*
X334975Y-2428290D01*
X334975Y-2427630D01*
X335483Y-2427122D01*
X335483Y-2426512D01*
X336346Y-2424531D01*
X336346Y-2423871D01*
X336651Y-2423617D01*
X340309Y-2413050D01*
X340309Y-2412542D01*
X342341Y-2407361D01*
X342341Y-2406802D01*
X342798Y-2406040D01*
X342849Y-2404872D01*
X341934Y-2403703D01*
X335229Y-2398064D01*
X333095Y-2395626D01*
X330758Y-2392273D01*
X330352Y-2391968D01*
X330352Y-2391613D01*
X328574Y-2388362D01*
X327507Y-2385364D01*
X326999Y-2384856D01*
X326999Y-2384094D01*
X325780Y-2380132D01*
X325018Y-2375001D01*
X325018Y-2370124D01*
X325831Y-2363825D01*
X327152Y-2358694D01*
X330657Y-2351430D01*
X333502Y-2347417D01*
X337261Y-2343759D01*
X339750Y-2341981D01*
X344017Y-2339594D01*
X346557Y-2338628D01*
X352806Y-2337358D01*
X355498Y-2337358D01*
X361746Y-2338628D01*
X364286Y-2339594D01*
X368554Y-2341981D01*
X371043Y-2343759D01*
X374751Y-2347417D01*
X377393Y-2351125D01*
X379933Y-2355951D01*
X381152Y-2358694D01*
X382473Y-2363825D01*
X383286Y-2370124D01*
X383286Y-2375001D01*
X382625Y-2379522D01*
X381304Y-2384094D01*
X381304Y-2384856D01*
X380796Y-2385364D01*
X380238Y-2387041D01*
X377952Y-2391613D01*
X377952Y-2391968D01*
X377545Y-2392273D01*
X375208Y-2395626D01*
X373024Y-2398064D01*
X366369Y-2403703D01*
X365455Y-2404872D01*
X365506Y-2406040D01*
X365963Y-2406802D01*
X365963Y-2407361D01*
X367944Y-2412542D01*
X367944Y-2413050D01*
X369316Y-2416403D01*
X370128Y-2419502D01*
X370636Y-2419959D01*
X370636Y-2420620D01*
X373278Y-2427782D01*
X373278Y-2428240D01*
X373938Y-2429713D01*
X373938Y-2430170D01*
X375310Y-2433472D01*
X377647Y-2440736D01*
X377952Y-2440940D01*
X377952Y-2441651D01*
X378612Y-2443073D01*
X378612Y-2443530D01*
X380796Y-2449271D01*
X380796Y-2449931D01*
X381304Y-2450439D01*
X381304Y-2451049D01*
X383946Y-2458059D01*
X383946Y-2458770D01*
X384962Y-2459990D01*
X385673Y-2459990D01*
X394208Y-2454554D01*
X395782Y-2453944D01*
X397205Y-2454554D01*
X398932Y-2456078D01*
X399237Y-2456078D01*
X399542Y-2456586D01*
X411581Y-2466289D01*
X411937Y-2466289D01*
X411937Y-2466594D01*
X415696Y-2469540D01*
X417017Y-2470810D01*
X418388Y-2471064D01*
X419354Y-2470454D01*
X438251Y-2448102D01*
X438251Y-2446172D01*
X436473Y-2443073D01*
X436219Y-2443073D01*
X436219Y-2442718D01*
X423570Y-2420721D01*
X423570Y-2419502D01*
X428243Y-2407970D01*
X428243Y-2407412D01*
X428701Y-2406599D01*
X428955Y-2405075D01*
X431647Y-2396032D01*
X432612Y-2394762D01*
X435508Y-2394000D01*
X437642Y-2393746D01*
X439166Y-2393188D01*
X441248Y-2392984D01*
X442468Y-2392426D01*
X444906Y-2392172D01*
X446125Y-2391664D01*
X448462Y-2391359D01*
X449630Y-2390851D01*
X452069Y-2390597D01*
X453288Y-2390089D01*
X458419Y-2389073D01*
X459384Y-2387752D01*
X459384Y-2355545D01*
X458622Y-2354427D01*
X456793Y-2353665D01*
X454609Y-2353411D01*
X453390Y-2352903D01*
X450951Y-2352649D01*
X449732Y-2352141D01*
X447293Y-2351836D01*
X446074Y-2351328D01*
X443992Y-2351074D01*
X438810Y-2349754D01*
X436626Y-2349500D01*
X435406Y-2348992D01*
X432968Y-2348738D01*
X431647Y-2348026D01*
X431088Y-2347264D01*
X430225Y-2345334D01*
X427888Y-2337206D01*
X427583Y-2336952D01*
X427583Y-2336139D01*
X422909Y-2325065D01*
X422909Y-2323592D01*
X425602Y-2318867D01*
X425602Y-2318512D01*
X425856Y-2318512D01*
X429564Y-2312060D01*
X429564Y-2311654D01*
X430022Y-2311349D01*
X434238Y-2303932D01*
X434238Y-2303576D01*
X434492Y-2303576D01*
X438099Y-2297480D01*
X438251Y-2295906D01*
X438048Y-2294940D01*
X419049Y-2272538D01*
X417982Y-2272284D01*
X416763Y-2272690D01*
X405993Y-2281428D01*
X405587Y-2281936D01*
X405282Y-2281936D01*
X394716Y-2290622D01*
X392836Y-2290622D01*
X385826Y-2286660D01*
X385470Y-2286660D01*
X385114Y-2286101D01*
X384048Y-2285847D01*
X378307Y-2283460D01*
X377037Y-2282748D01*
X376478Y-2282748D01*
X374294Y-2281224D01*
X373684Y-2279294D01*
X373430Y-2276602D01*
X373024Y-2275179D01*
X372770Y-2272284D01*
X372364Y-2270861D01*
X372110Y-2267966D01*
X371652Y-2266543D01*
X371246Y-2263089D01*
X370992Y-2262378D01*
X370789Y-2259533D01*
X370332Y-2258060D01*
X370078Y-2255113D01*
X369824Y-2254453D01*
X369316Y-2250592D01*
X368808Y-2248458D01*
X367792Y-2247341D01*
G37*
G36*
X384200Y-2491232D02*
G01*
X383184Y-2491333D01*
X383133Y-2503322D01*
X382727Y-2503830D01*
X381863Y-2503576D01*
X381355Y-2503068D01*
X378104Y-2502204D01*
X376224Y-2502408D01*
X374396Y-2503068D01*
X372872Y-2503932D01*
X371043Y-2505710D01*
X369874Y-2507437D01*
X368808Y-2509926D01*
X368452Y-2512872D01*
X368452Y-2532684D01*
X369062Y-2533446D01*
X371856Y-2534869D01*
X372465Y-2534666D01*
X372618Y-2533802D01*
X372719Y-2511602D01*
X373684Y-2509672D01*
X374396Y-2508808D01*
X375716Y-2507792D01*
X377799Y-2507132D01*
X380390Y-2507996D01*
X381812Y-2509367D01*
X382676Y-2510891D01*
X383133Y-2513736D01*
X383133Y-2532634D01*
X383641Y-2533446D01*
X386791Y-2534920D01*
X387299Y-2534412D01*
X387299Y-2493213D01*
X385927Y-2492197D01*
X384860Y-2491790D01*
G37*
G36*
X300786Y-2491232D02*
G01*
X299770Y-2491333D01*
X299720Y-2524353D01*
X303936Y-2524353D01*
X303936Y-2513177D01*
X304241Y-2511094D01*
X305460Y-2509062D01*
X306781Y-2507945D01*
X309626Y-2507183D01*
X312166Y-2508351D01*
X313791Y-2510586D01*
X314299Y-2511602D01*
X314401Y-2523591D01*
X314045Y-2526385D01*
X312928Y-2528265D01*
X311353Y-2529586D01*
X309067Y-2530246D01*
X306781Y-2529586D01*
X305460Y-2528468D01*
X304241Y-2526385D01*
X303936Y-2524353D01*
X299720Y-2524353D01*
X300228Y-2527909D01*
X301091Y-2529840D01*
X302412Y-2531922D01*
X304139Y-2533497D01*
X305663Y-2534412D01*
X306781Y-2534716D01*
X307187Y-2535123D01*
X310134Y-2535326D01*
X312623Y-2534462D01*
X314096Y-2533599D01*
X315823Y-2531922D01*
X317500Y-2529433D01*
X318160Y-2527655D01*
X318516Y-2524150D01*
X318516Y-2513380D01*
X318160Y-2509824D01*
X317144Y-2507488D01*
X314350Y-2504084D01*
X312623Y-2503068D01*
X310286Y-2502255D01*
X308660Y-2502255D01*
X305663Y-2503068D01*
X304546Y-2503830D01*
X303885Y-2503576D01*
X303885Y-2493264D01*
X303276Y-2492705D01*
G37*
G36*
X495096Y-2500528D02*
G01*
X490778Y-2500680D01*
X488340Y-2501950D01*
X486918Y-2503119D01*
X484784Y-2505659D01*
X484073Y-2507081D01*
X483362Y-2509215D01*
X483006Y-2512974D01*
X483006Y-2522474D01*
X483182Y-2524150D01*
X489407Y-2524150D01*
X489407Y-2511399D01*
X490321Y-2509418D01*
X491540Y-2507996D01*
X493471Y-2507335D01*
X495503Y-2507945D01*
X496417Y-2508758D01*
X497281Y-2510282D01*
X497840Y-2512822D01*
X497840Y-2522778D01*
X497179Y-2525420D01*
X496316Y-2526842D01*
X494741Y-2528062D01*
X492709Y-2528214D01*
X491439Y-2527554D01*
X490220Y-2526080D01*
X489407Y-2524150D01*
X483182Y-2524150D01*
X483362Y-2526334D01*
X484124Y-2528468D01*
X485749Y-2531414D01*
X487934Y-2533497D01*
X489407Y-2534361D01*
X492404Y-2535326D01*
X495604Y-2535123D01*
X497433Y-2534462D01*
X500075Y-2532684D01*
X502259Y-2530043D01*
X503174Y-2528112D01*
X503986Y-2525318D01*
X503986Y-2510028D01*
X503275Y-2507589D01*
X502818Y-2507132D01*
X502818Y-2506675D01*
X501396Y-2504287D01*
X499414Y-2502255D01*
X499059Y-2502255D01*
X498246Y-2501544D01*
X496570Y-2500782D01*
G37*
G36*
X469442Y-2500528D02*
G01*
X465226Y-2500630D01*
X462940Y-2501696D01*
X461314Y-2503017D01*
X459790Y-2504744D01*
X458165Y-2507792D01*
X457504Y-2510383D01*
X457357Y-2523134D01*
X463854Y-2523134D01*
X463854Y-2512568D01*
X464159Y-2510383D01*
X465023Y-2508859D01*
X466293Y-2507843D01*
X467766Y-2507386D01*
X468630Y-2507386D01*
X469950Y-2507996D01*
X471068Y-2509215D01*
X471932Y-2510790D01*
X471932Y-2524760D01*
X470763Y-2526690D01*
X469138Y-2528112D01*
X466598Y-2528112D01*
X465023Y-2526792D01*
X464515Y-2525623D01*
X464261Y-2525623D01*
X463854Y-2523134D01*
X457357Y-2523134D01*
X458114Y-2527757D01*
X458520Y-2528316D01*
X458724Y-2529179D01*
X460095Y-2531262D01*
X462940Y-2533802D01*
X464616Y-2534615D01*
X466801Y-2535326D01*
X469595Y-2535123D01*
X471474Y-2534412D01*
X472033Y-2534666D01*
X472033Y-2543657D01*
X472744Y-2544673D01*
X477469Y-2547061D01*
X477977Y-2547061D01*
X478535Y-2546451D01*
X478535Y-2512364D01*
X477977Y-2508656D01*
X476758Y-2505710D01*
X473913Y-2502306D01*
X471779Y-2501138D01*
G37*
G36*
X441655Y-2500528D02*
G01*
X439978Y-2500833D01*
X438302Y-2501544D01*
X437540Y-2502255D01*
X437184Y-2502255D01*
X434136Y-2505659D01*
X432765Y-2509062D01*
X432546Y-2511298D01*
X438404Y-2511298D01*
X438962Y-2509621D01*
X440435Y-2507945D01*
X443128Y-2507183D01*
X445058Y-2507996D01*
X446532Y-2509723D01*
X447243Y-2512364D01*
X447243Y-2515209D01*
X447040Y-2515819D01*
X445973Y-2515565D01*
X439775Y-2512263D01*
X438404Y-2511298D01*
X432546Y-2511298D01*
X432409Y-2515108D01*
X432816Y-2516073D01*
X446379Y-2523134D01*
X446887Y-2523794D01*
X446684Y-2525420D01*
X445871Y-2526538D01*
X445871Y-2526792D01*
X444296Y-2528062D01*
X441451Y-2528214D01*
X440182Y-2527503D01*
X438912Y-2526030D01*
X438251Y-2523947D01*
X437997Y-2522016D01*
X432917Y-2519324D01*
X432409Y-2519984D01*
X432562Y-2524353D01*
X433070Y-2526995D01*
X435660Y-2531770D01*
X437946Y-2533904D01*
X438353Y-2533904D01*
X438759Y-2534361D01*
X441655Y-2535275D01*
X443636Y-2535275D01*
X446684Y-2534208D01*
X449732Y-2531872D01*
X452221Y-2527554D01*
X452221Y-2527046D01*
X452780Y-2525725D01*
X452780Y-2510028D01*
X451256Y-2505862D01*
X449884Y-2503982D01*
X446989Y-2501442D01*
X446481Y-2501442D01*
X444550Y-2500680D01*
G37*
G36*
X418338Y-2500528D02*
G01*
X414680Y-2500680D01*
X412648Y-2501544D01*
X412140Y-2502052D01*
X411784Y-2502052D01*
X409803Y-2503982D01*
X408228Y-2506319D01*
X407568Y-2507843D01*
X406857Y-2510790D01*
X406755Y-2532532D01*
X408330Y-2533700D01*
X411378Y-2535275D01*
X412597Y-2535275D01*
X412597Y-2513380D01*
X412902Y-2510536D01*
X413766Y-2509012D01*
X414934Y-2507894D01*
X417017Y-2507132D01*
X419150Y-2507843D01*
X421081Y-2510078D01*
X421436Y-2511094D01*
X421436Y-2532532D01*
X422757Y-2533497D01*
X426059Y-2535275D01*
X427228Y-2535275D01*
X427431Y-2534361D01*
X427329Y-2511399D01*
X426212Y-2507284D01*
X424281Y-2503982D01*
X421589Y-2501646D01*
G37*
G36*
X355904Y-2502255D02*
G01*
X353060Y-2502408D01*
X351231Y-2503068D01*
X349402Y-2504084D01*
X346913Y-2507081D01*
X345440Y-2510790D01*
X345287Y-2532532D01*
X345795Y-2533446D01*
X349148Y-2535021D01*
X349504Y-2534310D01*
X349504Y-2519730D01*
X349859Y-2518918D01*
X350215Y-2519324D01*
X355041Y-2521559D01*
X355396Y-2521915D01*
X355854Y-2521915D01*
X357733Y-2522931D01*
X359359Y-2524455D01*
X359968Y-2525826D01*
X359968Y-2526588D01*
X359156Y-2528620D01*
X357886Y-2529636D01*
X355650Y-2530297D01*
X353060Y-2529586D01*
X352501Y-2530195D01*
X351790Y-2532532D01*
X351485Y-2532735D01*
X351485Y-2533802D01*
X351790Y-2534310D01*
X355244Y-2535326D01*
X357225Y-2535123D01*
X360629Y-2533497D01*
X361797Y-2532380D01*
X363016Y-2530754D01*
X364134Y-2527757D01*
X364134Y-2524353D01*
X363118Y-2521864D01*
X361289Y-2519629D01*
X358597Y-2517952D01*
X358241Y-2517952D01*
X350012Y-2513838D01*
X349656Y-2513838D01*
X349707Y-2511602D01*
X351129Y-2508910D01*
X352552Y-2507792D01*
X354838Y-2507081D01*
X357327Y-2507996D01*
X359308Y-2510282D01*
X360121Y-2513939D01*
X363728Y-2515717D01*
X364134Y-2515412D01*
X364134Y-2512161D01*
X363423Y-2509469D01*
X361137Y-2505456D01*
X359511Y-2503830D01*
X359206Y-2503830D01*
X358394Y-2503119D01*
G37*
G36*
X330606Y-2502255D02*
G01*
X327914Y-2503119D01*
X326339Y-2504084D01*
X324408Y-2506268D01*
X322986Y-2509012D01*
X322173Y-2512161D01*
X322173Y-2513025D01*
X322884Y-2514041D01*
X325831Y-2515463D01*
X326237Y-2515057D01*
X326440Y-2512568D01*
X327050Y-2510282D01*
X328930Y-2508046D01*
X331571Y-2507132D01*
X333908Y-2507894D01*
X335178Y-2508910D01*
X336753Y-2511602D01*
X336854Y-2532634D01*
X337718Y-2533700D01*
X338074Y-2533700D01*
X340664Y-2535072D01*
X341020Y-2534259D01*
X340918Y-2510790D01*
X340055Y-2508453D01*
X338785Y-2506167D01*
X336804Y-2504033D01*
X335076Y-2503068D01*
X332943Y-2502255D01*
G37*
G36*
X257810Y-2502255D02*
G01*
X255524Y-2503068D01*
X254000Y-2503932D01*
X251561Y-2506472D01*
X250393Y-2508504D01*
X249580Y-2511399D01*
X249580Y-2532786D01*
X250291Y-2533700D01*
X250799Y-2533700D01*
X253288Y-2535072D01*
X253492Y-2534818D01*
X253644Y-2519172D01*
X253847Y-2518968D01*
X255981Y-2519984D01*
X256336Y-2520340D01*
X256844Y-2520340D01*
X258064Y-2521102D01*
X258521Y-2521102D01*
X259740Y-2521915D01*
X260096Y-2521915D01*
X262280Y-2523134D01*
X264058Y-2525217D01*
X264109Y-2526538D01*
X263398Y-2528671D01*
X262178Y-2529586D01*
X259791Y-2530297D01*
X257200Y-2529586D01*
X256946Y-2529738D01*
X255574Y-2533294D01*
X255879Y-2534259D01*
X258317Y-2535174D01*
X261467Y-2535174D01*
X264668Y-2533650D01*
X266598Y-2531821D01*
X267716Y-2529840D01*
X268274Y-2528316D01*
X268274Y-2523947D01*
X267258Y-2521610D01*
X265480Y-2519578D01*
X261264Y-2517190D01*
X260858Y-2517190D01*
X253746Y-2513634D01*
X253746Y-2512263D01*
X254406Y-2510282D01*
X255066Y-2509469D01*
X255066Y-2509164D01*
X256641Y-2507894D01*
X258978Y-2507132D01*
X261162Y-2507843D01*
X262636Y-2509113D01*
X263398Y-2510231D01*
X263956Y-2511806D01*
X264312Y-2513888D01*
X267766Y-2515870D01*
X268224Y-2515616D01*
X268224Y-2511552D01*
X267360Y-2508859D01*
X265480Y-2505710D01*
X264058Y-2504135D01*
X262331Y-2503068D01*
X260146Y-2502255D01*
G37*
G36*
X235204Y-2502255D02*
G01*
X232714Y-2503068D01*
X231394Y-2503830D01*
X229666Y-2505456D01*
X228295Y-2507538D01*
X227075Y-2510790D01*
X226923Y-2512872D01*
X227126Y-2513838D01*
X230581Y-2515463D01*
X230886Y-2515260D01*
X231089Y-2512161D01*
X232156Y-2509621D01*
X234188Y-2507792D01*
X236169Y-2507132D01*
X238353Y-2507792D01*
X240029Y-2509113D01*
X240893Y-2510586D01*
X241503Y-2512161D01*
X241604Y-2532786D01*
X242112Y-2533497D01*
X245262Y-2535072D01*
X245567Y-2534869D01*
X245567Y-2511145D01*
X244805Y-2508605D01*
X244043Y-2507081D01*
X242925Y-2505557D01*
X241147Y-2503830D01*
X237540Y-2502255D01*
G37*
G36*
X214884Y-2502255D02*
G01*
X212039Y-2502408D01*
X210210Y-2503068D01*
X208737Y-2503932D01*
X207060Y-2505506D01*
X205638Y-2507284D01*
X204317Y-2511196D01*
X204317Y-2513025D01*
X208483Y-2513025D01*
X208483Y-2512060D01*
X208991Y-2510586D01*
X209854Y-2509113D01*
X211378Y-2507894D01*
X214020Y-2507183D01*
X216103Y-2507894D01*
X217982Y-2509977D01*
X218846Y-2512161D01*
X218846Y-2518156D01*
X218592Y-2518410D01*
X208483Y-2513025D01*
X204317Y-2513025D01*
X204317Y-2516225D01*
X218389Y-2523693D01*
X218795Y-2523693D01*
X218744Y-2525318D01*
X218186Y-2526893D01*
X217271Y-2528519D01*
X215696Y-2529687D01*
X213461Y-2530246D01*
X211531Y-2529738D01*
X210058Y-2528570D01*
X209143Y-2527249D01*
X208584Y-2525623D01*
X208229Y-2523591D01*
X204774Y-2521661D01*
X204317Y-2521864D01*
X204317Y-2525979D01*
X205028Y-2528316D01*
X207162Y-2532024D01*
X208889Y-2533650D01*
X210210Y-2534462D01*
X212039Y-2535123D01*
X214579Y-2535326D01*
X217220Y-2534412D01*
X218592Y-2533548D01*
X220217Y-2532024D01*
X221589Y-2530043D01*
X222961Y-2526131D01*
X222961Y-2511399D01*
X222250Y-2508859D01*
X220217Y-2505456D01*
X218694Y-2504033D01*
G37*
G36*
X291693Y-2502458D02*
G01*
X291388Y-2503474D01*
X291388Y-2527604D01*
X290576Y-2529484D01*
X289407Y-2530348D01*
X288036Y-2530348D01*
X286715Y-2529382D01*
X286156Y-2528316D01*
X285953Y-2504846D01*
X285140Y-2503830D01*
X282397Y-2502662D01*
X281889Y-2502865D01*
X281940Y-2526741D01*
X281381Y-2528976D01*
X279958Y-2530348D01*
X278536Y-2530348D01*
X277114Y-2529382D01*
X276402Y-2527147D01*
X276402Y-2504846D01*
X275691Y-2503830D01*
X275234Y-2503830D01*
X272542Y-2502509D01*
X272237Y-2503220D01*
X272237Y-2527503D01*
X272897Y-2530348D01*
X273710Y-2532075D01*
X274980Y-2533497D01*
X276656Y-2534615D01*
X279146Y-2535326D01*
X282092Y-2534462D01*
X283718Y-2533091D01*
X284073Y-2533091D01*
X285699Y-2534462D01*
X288645Y-2535326D01*
X291642Y-2534412D01*
X293522Y-2532837D01*
X294843Y-2530602D01*
X295554Y-2527401D01*
X295554Y-2504795D01*
X294741Y-2503830D01*
X294335Y-2503830D01*
G37*
G36*
X205892Y-2682087D02*
G01*
X205587Y-2683154D01*
X205587Y-2691790D01*
X205994Y-2692400D01*
X270256Y-2756814D01*
X269697Y-2757474D01*
X269670Y-2765196D01*
X278536Y-2765196D01*
X287629Y-2774289D01*
X288391Y-2778760D01*
X277876Y-2778760D01*
X277876Y-2765196D01*
X269670Y-2765196D01*
X269646Y-2786380D01*
X270357Y-2787243D01*
X298551Y-2787040D01*
X299720Y-2786481D01*
X353212Y-2839974D01*
X353212Y-2840532D01*
X364388Y-2840532D01*
X364388Y-2839821D01*
X411734Y-2790799D01*
X410464Y-2802737D01*
X409346Y-2817469D01*
X403809Y-2879699D01*
X403606Y-2879902D01*
X364388Y-2840532D01*
X353212Y-2840583D01*
X308051Y-2887522D01*
X307340Y-2884170D01*
X306476Y-2871774D01*
X305409Y-2862630D01*
X303530Y-2840888D01*
X302209Y-2828848D01*
X300685Y-2810814D01*
X300177Y-2807868D01*
X299110Y-2795219D01*
X298805Y-2794558D01*
X298551Y-2787040D01*
X288828Y-2787040D01*
X289102Y-2787497D01*
X290931Y-2807512D01*
X291185Y-2808325D01*
X292862Y-2828950D01*
X293319Y-2831490D01*
X293370Y-2834538D01*
X293827Y-2837129D01*
X295706Y-2859125D01*
X297027Y-2871165D01*
X297789Y-2881579D01*
X298297Y-2884424D01*
X298551Y-2889758D01*
X298958Y-2890266D01*
X299212Y-2896666D01*
X298066Y-2897886D01*
X308660Y-2897886D01*
X324205Y-2881782D01*
X325221Y-2880512D01*
X350012Y-2855010D01*
X350164Y-2854553D01*
X358038Y-2846476D01*
X358902Y-2845917D01*
X402336Y-2889554D01*
X402844Y-2890266D01*
X402437Y-2898190D01*
X401980Y-2900527D01*
X400456Y-2917139D01*
X399440Y-2931668D01*
X331165Y-2931769D01*
X331216Y-2927705D01*
X330606Y-2923032D01*
X330149Y-2922574D01*
X330149Y-2921660D01*
X326948Y-2915208D01*
X325780Y-2913684D01*
X322224Y-2910027D01*
X321614Y-2910027D01*
X321614Y-2909620D01*
X317906Y-2907284D01*
X315264Y-2906115D01*
X313740Y-2905760D01*
X312470Y-2905099D01*
X311353Y-2905099D01*
X309524Y-2904540D01*
X308660Y-2897886D01*
X298066Y-2897886D01*
X257048Y-2940253D01*
X256895Y-2940710D01*
X230886Y-2967431D01*
X222707Y-2976270D01*
X222707Y-2976829D01*
X227584Y-2981401D01*
X228346Y-2981401D01*
X229616Y-2979877D01*
X281076Y-2926588D01*
X281107Y-2927248D01*
X293776Y-2927248D01*
X294335Y-2925368D01*
X296062Y-2921863D01*
X298958Y-2919018D01*
X302006Y-2917545D01*
X304698Y-2916834D01*
X308152Y-2916885D01*
X312216Y-2918307D01*
X315163Y-2920492D01*
X317500Y-2923692D01*
X318566Y-2926842D01*
X318363Y-2932684D01*
X317855Y-2933293D01*
X317500Y-2934462D01*
X315874Y-2936951D01*
X314248Y-2938526D01*
X311759Y-2940151D01*
X310032Y-2940862D01*
X305866Y-2941675D01*
X302310Y-2940862D01*
X299262Y-2939440D01*
X296011Y-2936240D01*
X294894Y-2934004D01*
X294589Y-2933801D01*
X293928Y-2931668D01*
X293776Y-2927248D01*
X281107Y-2927248D01*
X281381Y-2933090D01*
X281838Y-2934004D01*
X282194Y-2936240D01*
X282600Y-2936494D01*
X282600Y-2937205D01*
X284835Y-2941980D01*
X286410Y-2944012D01*
X286410Y-2944368D01*
X289814Y-2947771D01*
X293217Y-2950210D01*
X299161Y-2952750D01*
X303428Y-2953613D01*
X309118Y-2953613D01*
X312623Y-2953105D01*
X313182Y-2952648D01*
X314706Y-2952343D01*
X318058Y-2950870D01*
X318058Y-2950514D01*
X318617Y-2950514D01*
X321614Y-2948584D01*
X325831Y-2944520D01*
X328015Y-2941320D01*
X328168Y-2940812D01*
X387451Y-2940812D01*
X387705Y-2941421D01*
X387705Y-2952851D01*
X388924Y-2953613D01*
X403961Y-2953308D01*
X404317Y-2952750D01*
X404368Y-2940812D01*
X406755Y-2939643D01*
X407670Y-2938322D01*
X408178Y-2936798D01*
X410565Y-2911094D01*
X411480Y-2898597D01*
X416001Y-2903016D01*
X416001Y-2903321D01*
X494792Y-2982112D01*
X495706Y-2982112D01*
X500380Y-2977540D01*
X500380Y-2976930D01*
X454304Y-2930855D01*
X453339Y-2929636D01*
X413105Y-2889554D01*
X412445Y-2888386D01*
X413054Y-2879699D01*
X413359Y-2879039D01*
X415239Y-2855163D01*
X416204Y-2846273D01*
X416712Y-2838805D01*
X416864Y-2838551D01*
X417220Y-2831287D01*
X417474Y-2830830D01*
X421690Y-2781909D01*
X422097Y-2779877D01*
X505612Y-2693111D01*
X505612Y-2684068D01*
X504951Y-2683205D01*
X480263Y-2708554D01*
X480110Y-2709062D01*
X457454Y-2732532D01*
X453745Y-2736037D01*
X453796Y-2736392D01*
X422859Y-2768346D01*
X424992Y-2744622D01*
X434187Y-2744876D01*
X435101Y-2744165D01*
X435101Y-2736240D01*
X434441Y-2735478D01*
X426516Y-2735478D01*
X425754Y-2734614D01*
X425450Y-2733344D01*
X425043Y-2733344D01*
X424738Y-2731922D01*
X424281Y-2731922D01*
X424281Y-2731516D01*
X422554Y-2728925D01*
X422148Y-2728925D01*
X422148Y-2728315D01*
X419658Y-2725724D01*
X413562Y-2721203D01*
X412953Y-2721203D01*
X412750Y-2720746D01*
X408736Y-2718663D01*
X408482Y-2713583D01*
X408127Y-2712974D01*
X394360Y-2712974D01*
X392734Y-2713736D01*
X382117Y-2711805D01*
X370789Y-2710637D01*
X370789Y-2708554D01*
X370332Y-2707386D01*
X328777Y-2707386D01*
X328015Y-2708402D01*
X328320Y-2711246D01*
X327152Y-2711856D01*
X319125Y-2712974D01*
X317906Y-2713431D01*
X315772Y-2713685D01*
X310997Y-2715107D01*
X310235Y-2715107D01*
X309930Y-2715514D01*
X308000Y-2715818D01*
X306730Y-2716479D01*
X305917Y-2716479D01*
X305663Y-2716987D01*
X304901Y-2716987D01*
X298854Y-2719781D01*
X337261Y-2719781D01*
X337413Y-2716682D01*
X361137Y-2716580D01*
X361797Y-2717088D01*
X361645Y-2719679D01*
X298854Y-2719781D01*
X297484Y-2720441D01*
X293928Y-2722778D01*
X289966Y-2726334D01*
X289712Y-2726334D01*
X287426Y-2724353D01*
X284226Y-2722676D01*
X277672Y-2722676D01*
X277012Y-2723235D01*
X275691Y-2723540D01*
X273710Y-2724759D01*
X271576Y-2726944D01*
X270510Y-2728366D01*
X269290Y-2731871D01*
X269290Y-2735326D01*
X295097Y-2735326D01*
X295249Y-2734462D01*
X296519Y-2732786D01*
X300075Y-2729738D01*
X302463Y-2728061D01*
X306476Y-2726182D01*
X311251Y-2724454D01*
X311912Y-2724454D01*
X313385Y-2723794D01*
X327812Y-2720898D01*
X328218Y-2721508D01*
X327964Y-2728112D01*
X328676Y-2728823D01*
X370332Y-2728772D01*
X370789Y-2728061D01*
X370789Y-2720238D01*
X374243Y-2720289D01*
X375869Y-2720644D01*
X380187Y-2720949D01*
X382117Y-2721406D01*
X386130Y-2721864D01*
X393141Y-2723134D01*
X393141Y-2728925D01*
X408736Y-2728925D01*
X412038Y-2730957D01*
X415950Y-2735173D01*
X415239Y-2735478D01*
X408584Y-2735478D01*
X408584Y-2728925D01*
X393141Y-2728925D01*
X393141Y-2735478D01*
X269290Y-2735326D01*
X269290Y-2736240D01*
X270814Y-2739999D01*
X272288Y-2741879D01*
X273456Y-2742946D01*
X275894Y-2744571D01*
X277266Y-2744876D01*
X277926Y-2745384D01*
X283972Y-2745384D01*
X284734Y-2744774D01*
X284790Y-2745028D01*
X415290Y-2744927D01*
X415543Y-2745994D01*
X414020Y-2761996D01*
X413613Y-2768549D01*
X412445Y-2779166D01*
X358698Y-2834843D01*
X339445Y-2815640D01*
X339445Y-2815336D01*
X327761Y-2803804D01*
X328625Y-2803601D01*
X371602Y-2803652D01*
X372262Y-2803042D01*
X372262Y-2787192D01*
X371754Y-2785973D01*
X320141Y-2785973D01*
X319227Y-2786481D01*
X319227Y-2793441D01*
X318922Y-2794965D01*
X299262Y-2775254D01*
X299262Y-2757474D01*
X298653Y-2757119D01*
X295351Y-2756865D01*
X294436Y-2745028D01*
X284790Y-2745028D01*
X285445Y-2749143D01*
X286207Y-2756966D01*
X281025Y-2756966D01*
X225348Y-2701239D01*
X225348Y-2700883D01*
X215950Y-2691790D01*
X206400Y-2682138D01*
G37*
G36*
X307441Y-2920593D02*
G01*
X303784Y-2920695D01*
X303174Y-2921203D01*
X301853Y-2921508D01*
X301853Y-2921965D01*
X301244Y-2921965D01*
X299110Y-2924098D01*
X297738Y-2926994D01*
X297688Y-2931261D01*
X299059Y-2934055D01*
X301294Y-2936138D01*
X302463Y-2936849D01*
X304952Y-2937662D01*
X307441Y-2937611D01*
X309575Y-2936951D01*
X311099Y-2936240D01*
X313232Y-2934360D01*
X314299Y-2932226D01*
X315010Y-2928924D01*
X314401Y-2926283D01*
X313232Y-2923997D01*
X311505Y-2922219D01*
X308813Y-2920847D01*
G37*
D10*
X1969770Y-2387600D02*
G01*
X1969770Y-2344928D01*
X1992226Y-2501900D02*
G01*
X2041862Y-2501900D01*
X1992226Y-2501900D02*
G01*
X1992226Y-2523172D01*
X1994590Y-2530264D01*
X1996955Y-2532626D01*
X2001682Y-2534991D01*
X2006409Y-2534991D01*
X2011136Y-2532626D01*
X2013501Y-2530264D01*
X2015863Y-2523172D01*
X2015863Y-2501900D02*
G01*
X2015863Y-2523172D01*
X2018228Y-2530264D01*
X2020590Y-2532626D01*
X2025317Y-2534991D01*
X2032408Y-2534991D01*
X2037135Y-2532626D01*
X2039500Y-2530264D01*
X2041862Y-2523172D01*
X2041862Y-2501900D01*
X1992226Y-2569499D02*
G01*
X2041862Y-2550591D01*
X1992226Y-2569499D02*
G01*
X2041862Y-2588409D01*
X2025317Y-2557680D02*
G01*
X2025317Y-2581318D01*
X1992226Y-2620553D02*
G01*
X2041862Y-2620553D01*
X1992226Y-2604007D02*
G01*
X1992226Y-2637099D01*
X1992226Y-2669245D02*
G01*
X2041862Y-2669245D01*
X1992226Y-2652699D02*
G01*
X1992226Y-2685790D01*
X1992226Y-2737789D02*
G01*
X2041862Y-2737789D01*
X1992226Y-2753390D02*
G01*
X2041862Y-2753390D01*
X1992226Y-2753390D02*
G01*
X2041862Y-2786481D01*
X1992226Y-2786481D02*
G01*
X2041862Y-2786481D01*
X1977136Y-2875534D02*
G01*
X1977136Y-2918205D01*
X1955800Y-2896870D02*
G01*
X1998472Y-2896870D01*
X1299408Y-1904009D02*
G01*
X1301681Y-1899462D01*
X1306228Y-1894918D01*
X1310772Y-1892645D01*
X1319862Y-1892645D01*
X1324409Y-1894918D01*
X1328953Y-1899462D01*
X1331226Y-1904009D01*
X1333500Y-1910826D01*
X1333500Y-1922190D01*
X1331226Y-1929008D01*
X1328953Y-1933554D01*
X1324409Y-1938101D01*
X1319862Y-1940372D01*
X1310772Y-1940372D01*
X1306228Y-1938101D01*
X1301681Y-1933554D01*
X1299408Y-1929008D01*
X1279862Y-1892645D02*
G01*
X1254864Y-1892645D01*
X1268501Y-1910826D01*
X1261681Y-1910826D01*
X1257137Y-1913100D01*
X1254864Y-1915373D01*
X1252590Y-1922190D01*
X1252590Y-1926737D01*
X1254864Y-1933554D01*
X1259408Y-1938101D01*
X1266228Y-1940372D01*
X1273045Y-1940372D01*
X1279862Y-1938101D01*
X1282136Y-1935827D01*
X1284409Y-1931281D01*
D11*
X739546Y-814397D02*
G01*
X930300Y-814397D01*
X930300Y-814397D02*
G01*
X930300Y-923617D01*
X739546Y-1038171D02*
G01*
X748690Y-1019883D01*
X766724Y-1001595D01*
X785012Y-992705D01*
X812190Y-983561D01*
X857656Y-983561D01*
X884834Y-992705D01*
X903122Y-1001595D01*
X921410Y-1019883D01*
X930300Y-1038171D01*
X930300Y-1074493D01*
X921410Y-1092527D01*
X903122Y-1110815D01*
X884834Y-1119959D01*
X857656Y-1128849D01*
X812190Y-1128849D01*
X785012Y-1119959D01*
X766724Y-1110815D01*
X748690Y-1092527D01*
X739546Y-1074493D01*
X739546Y-1038171D01*
X739546Y-1189047D02*
G01*
X930300Y-1189047D01*
X739546Y-1189047D02*
G01*
X739546Y-1270835D01*
X748690Y-1298013D01*
X757580Y-1307157D01*
X775868Y-1316301D01*
X794156Y-1316301D01*
X812190Y-1307157D01*
X821334Y-1298013D01*
X830478Y-1270835D01*
X830478Y-1189047D01*
X830478Y-1252547D02*
G01*
X930300Y-1316301D01*
X803046Y-1485211D02*
G01*
X930300Y-1485211D01*
X830478Y-1485211D02*
G01*
X812190Y-1467177D01*
X803046Y-1448889D01*
X803046Y-1421711D01*
X812190Y-1403423D01*
X830478Y-1385389D01*
X857656Y-1376245D01*
X875944Y-1376245D01*
X903122Y-1385389D01*
X921410Y-1403423D01*
X930300Y-1421711D01*
X930300Y-1448889D01*
X921410Y-1467177D01*
X903122Y-1485211D01*
D12*
X1016000Y-2627884D02*
G01*
X1016000Y-2705862D01*
X1010920Y-2721355D01*
X1000505Y-2731770D01*
X984757Y-2736850D01*
X974344Y-2736850D01*
X958850Y-2731770D01*
X948436Y-2721355D01*
X943355Y-2705862D01*
X943355Y-2627884D01*
X903731Y-2653792D02*
G01*
X903731Y-2648712D01*
X898652Y-2638297D01*
X893318Y-2632963D01*
X882904Y-2627884D01*
X862329Y-2627884D01*
X851915Y-2632963D01*
X846581Y-2638297D01*
X841502Y-2648712D01*
X841502Y-2659126D01*
X846581Y-2669539D01*
X856995Y-2685034D01*
X909065Y-2736850D01*
X836168Y-2736850D01*
D10*
X689808Y-1891309D02*
G01*
X692081Y-1886762D01*
X696628Y-1882218D01*
X701172Y-1879945D01*
X710262Y-1879945D01*
X714809Y-1882218D01*
X719353Y-1886762D01*
X721626Y-1891309D01*
X723900Y-1898126D01*
X723900Y-1909490D01*
X721626Y-1916308D01*
X719353Y-1920854D01*
X714809Y-1925401D01*
X710262Y-1927672D01*
X701172Y-1927672D01*
X696628Y-1925401D01*
X692081Y-1920854D01*
X689808Y-1916308D01*
X652081Y-1879945D02*
G01*
X674809Y-1911764D01*
X640717Y-1911764D01*
X652081Y-1879945D02*
G01*
X652081Y-1927672D01*
D12*
X1203180Y-1967039D02*
G01*
X1344180Y-1967039D01*
X1344180Y-2147760D02*
G01*
X1203180Y-2147760D01*
X1187940Y-2132520D02*
G01*
X1187940Y-1982279D01*
X1565419Y-1967039D02*
G01*
X1424419Y-1967039D01*
X1424419Y-2147760D02*
G01*
X1565419Y-2147760D01*
X1580659Y-2132520D02*
G01*
X1580659Y-1982279D01*
D13*
X1930293Y-1764400D02*
G01*
X330299Y-1764398D01*
X330713Y-64094D02*
G01*
X1930707Y-64096D01*
D14*
X1330297Y-214401D02*
G01*
X530298Y-214401D01*
X530298Y-1614398D01*
X1730296Y-1614398D01*
X1730296Y-614400D01*
D13*
X1930707Y-64096D02*
G01*
X1930707Y-126286D01*
X1930707Y-302513D02*
G01*
X1930707Y-326288D01*
X1930707Y-502516D02*
G01*
X1930707Y-526285D01*
X1930707Y-702513D02*
G01*
X1930707Y-726287D01*
X1930707Y-902515D02*
G01*
X1930707Y-926284D01*
X1930707Y-1102514D02*
G01*
X1930707Y-1126284D01*
X1930707Y-1302512D02*
G01*
X1930707Y-1326283D01*
X1930707Y-1502514D02*
G01*
X1930707Y-1526283D01*
X1930707Y-1702511D02*
G01*
X1930707Y-1764400D01*
X330713Y-64094D02*
G01*
X330713Y-126286D01*
X330713Y-302513D02*
G01*
X330713Y-326438D01*
X330713Y-502668D02*
G01*
X330713Y-526285D01*
X330713Y-702513D02*
G01*
X330713Y-726287D01*
X330713Y-902515D02*
G01*
X330713Y-926284D01*
X330713Y-1102514D02*
G01*
X330713Y-1126284D01*
X330713Y-1302512D02*
G01*
X330713Y-1326283D01*
X330713Y-1502514D02*
G01*
X330713Y-1526283D01*
X330713Y-1702511D02*
G01*
X330713Y-1774398D01*
X1470289Y-134406D02*
G01*
X1470289Y-504408D01*
X1790278Y-504408D01*
X1790278Y-134406D01*
X1470289Y-134406D01*
D12*
X581779Y-2804139D02*
G01*
X1247020Y-2804139D01*
X1247020Y-2529860D01*
X581779Y-2529860D01*
X581779Y-2804139D01*
X609780Y-1948139D02*
G01*
X758278Y-1948139D01*
X758278Y-2166660D02*
G01*
X609780Y-2166660D01*
X594540Y-2151420D02*
G01*
X594540Y-1963379D01*
X1092019Y-1948139D02*
G01*
X943521Y-1948139D01*
X943521Y-2166660D02*
G01*
X1092019Y-2166660D01*
X1107259Y-2151420D02*
G01*
X1107259Y-1963379D01*
G75*
G01*
X1203180Y-2147760D02*
G02*
X1187940Y-2132520I0J15240D01*
G75*
G01*
X1187940Y-1982280D02*
G02*
X1203180Y-1967040I15240J0D01*
G75*
G01*
X1565420Y-2147760D02*
G03*
X1580660Y-2132520I0J15240D01*
G75*
G01*
X1580660Y-1982280D02*
G03*
X1565420Y-1967040I-15240J0D01*
G75*
G01*
X609780Y-2166661D02*
G02*
X594540Y-2151421I0J15240D01*
G75*
G01*
X594540Y-1963379D02*
G02*
X609780Y-1948139I15240J0D01*
G75*
G01*
X1092020Y-2166661D02*
G03*
X1107260Y-2151421I0J15240D01*
G75*
G01*
X1107260Y-1963379D02*
G03*
X1092020Y-1948139I-15240J0D01*
D13*
G75*
G01
X1742110Y-314401D02*
G03X1742110Y-314401I-111811J0D01*
G75*
G01
X1640307Y-314401D02*
G03X1640307Y-314401I-10008J0D01*
G75*
G01
X1042238Y-514553D02*
G03X1042238Y-514553I-212141J0D01*
D11*
G75*
G01
X2040280Y-84404D02*
G03X2040280Y-84404I-19990J0D01*
M02*
