G04 Layer: BottomPasteMaskLayer*
G04 EasyEDA v6.5.51, 2025-11-13 11:14:40*
G04 bf1f3799a3224107ae82f300eded96c1,09fcd8053ca944d09a55be336b12f992,10*
G04 Gerber Generator version 0.2*
G04 Scale: 100 percent, Rotated: No, Reflected: No *
G04 Dimensions in millimeters *
G04 leading zeros omitted , absolute positions ,4 integer and 5 decimal *
%FSLAX45Y45*%
%MOMM*%

%AMMACRO1*21,1,$1,$2,0,0,$3*%
%ADD10MACRO1,2.2001X1.4X0.0000*%
%ADD11MACRO1,0.9799X2.4701X0.0000*%
%ADD12MACRO1,3.6002X2.4701X0.0000*%
%ADD13C,0.0115*%

%LPD*%
G36*
X1434795Y-1988413D02*
G01*
X1429816Y-1993392D01*
X1429308Y-2034387D01*
X1474317Y-2034387D01*
X1474317Y-2079396D01*
X1430274Y-2079396D01*
X1429816Y-2121408D01*
X1434795Y-2126386D01*
X1549806Y-2126386D01*
X1554784Y-2121408D01*
X1554784Y-1993392D01*
X1549806Y-1988413D01*
G37*
G36*
X1218793Y-1988413D02*
G01*
X1213815Y-1993392D01*
X1213815Y-2121408D01*
X1218793Y-2126386D01*
X1333804Y-2126386D01*
X1338783Y-2121408D01*
X1339291Y-2080412D01*
X1294282Y-2080412D01*
X1294282Y-2035403D01*
X1338326Y-2035403D01*
X1338783Y-1993392D01*
X1333804Y-1988413D01*
G37*
G36*
X627380Y-1970989D02*
G01*
X617423Y-1980996D01*
X617423Y-2133803D01*
X627380Y-2143810D01*
X755904Y-2143810D01*
X765911Y-2133803D01*
X765911Y-2096770D01*
X755904Y-2086762D01*
X725424Y-2086762D01*
X715416Y-2076754D01*
X715416Y-2038045D01*
X725424Y-2028037D01*
X755904Y-2028037D01*
X765911Y-2018030D01*
X765911Y-1980996D01*
X755904Y-1970989D01*
G37*
G36*
X945896Y-1970989D02*
G01*
X935888Y-1980996D01*
X935888Y-2018030D01*
X945896Y-2028037D01*
X976376Y-2028037D01*
X986383Y-2038045D01*
X986383Y-2076754D01*
X976376Y-2086762D01*
X945896Y-2086762D01*
X935888Y-2096770D01*
X935888Y-2133803D01*
X945896Y-2143810D01*
X1074420Y-2143810D01*
X1084376Y-2133803D01*
X1084376Y-1980996D01*
X1074420Y-1970989D01*
G37*
D10*
G01*
X1930298Y-214401D03*
G01*
X1930298Y-414401D03*
G01*
X1930298Y-614400D03*
G01*
X1930298Y-814400D03*
G01*
X1930298Y-1014399D03*
G01*
X1930298Y-1214399D03*
G01*
X1930298Y-1414398D03*
G01*
X1930298Y-1614398D03*
G01*
X330301Y-1614398D03*
G01*
X330301Y-1414398D03*
G01*
X330301Y-1214399D03*
G01*
X330301Y-1014399D03*
G01*
X330301Y-814400D03*
G01*
X330301Y-614400D03*
G01*
X330301Y-414553D03*
G01*
X330301Y-214401D03*
D11*
G01*
X684402Y-2383497D03*
G01*
X914400Y-2383497D03*
G01*
X1144397Y-2383497D03*
D12*
G01*
X914400Y-2950502D03*
M02*
